<svg width="24" height="24" viewBox="0 0 24 24" fill="none" xmlns="http://www.w3.org/2000/svg">
<path d="M4.88892 20.3297V3.67031C4.88892 2.95078 5.65034 2.51719 6.22983 2.90391L18.7091 11.2336C19.2459 11.5922 19.2459 12.4078 18.7091 12.7664L6.22983 21.0961C5.65034 21.4828 4.88892 21.0492 4.88892 20.3297Z" fill="#264065"/>
<path d="M5.22576 20.3297C5.22576 20.0016 5.22576 19.6711 5.22576 19.343C5.22576 18.5062 5.22576 17.6695 5.22576 16.8328C5.22576 15.6961 5.22576 14.5594 5.22576 13.425C5.22576 12.2062 5.22576 10.9875 5.22576 9.7664C5.22576 8.6789 5.22576 7.5914 5.22576 6.50155C5.22576 5.75858 5.22576 5.01796 5.22576 4.27499C5.22576 4.10155 5.22576 3.92577 5.22576 3.75233C5.22576 3.72655 5.22576 3.69843 5.22576 3.67265C5.22576 3.66093 5.22576 3.65624 5.22576 3.63983C5.22576 3.61874 5.228 3.59999 5.23025 3.5789C5.22576 3.6539 5.228 3.59061 5.23249 3.56952C5.24373 3.52733 5.25496 3.48515 5.26619 3.4453C5.24373 3.51561 5.25945 3.45702 5.27068 3.43827C5.2864 3.41015 5.29988 3.38202 5.31785 3.3539C5.32683 3.33749 5.33806 3.32343 5.34705 3.30936C5.30662 3.36796 5.33357 3.32811 5.3448 3.3164C5.37624 3.28358 5.40544 3.25311 5.43914 3.22265C5.38523 3.27186 5.42566 3.23202 5.44363 3.2203C5.4616 3.20858 5.47957 3.19686 5.49978 3.18515C5.5155 3.17577 5.53123 3.16874 5.54695 3.15936C5.61208 3.12186 5.49753 3.17343 5.56267 3.15233C5.60535 3.14061 5.64578 3.12655 5.68845 3.11718C5.76482 3.09608 5.64353 3.11015 5.6907 3.11718C5.71091 3.11952 5.73562 3.11483 5.75583 3.11483C5.7738 3.11483 5.79177 3.11483 5.80974 3.11718C5.81423 3.11718 5.89734 3.13358 5.84568 3.11952C5.79177 3.10546 5.87937 3.1289 5.88162 3.1289C5.90857 3.13593 5.93552 3.1453 5.96023 3.15468C6.01863 3.17343 5.97146 3.15936 5.95798 3.15233C5.98494 3.1664 6.00964 3.18046 6.03435 3.19452C6.04333 3.19921 6.05232 3.20624 6.05906 3.21093C6.0613 3.21327 6.06355 3.21327 6.0658 3.21561C6.09724 3.23671 6.13093 3.2578 6.16238 3.2789C6.33084 3.3914 6.49705 3.50155 6.6655 3.61405C7.31912 4.04999 7.97498 4.48827 8.62859 4.92421C9.54949 5.54061 10.4726 6.15468 11.3935 6.77108C12.3706 7.42265 13.3476 8.07655 14.3269 8.72811C15.1692 9.29061 16.0093 9.85077 16.8515 10.4133C17.3524 10.7484 17.8533 11.0836 18.3564 11.4164C18.4058 11.4492 18.453 11.482 18.5024 11.5125C18.5136 11.5195 18.5249 11.5266 18.5361 11.5336C18.5384 11.5336 18.5406 11.5359 18.5406 11.5359C18.5563 11.5476 18.5743 11.5594 18.59 11.5711C18.5384 11.5289 18.5878 11.5711 18.599 11.5828C18.6215 11.6086 18.6439 11.632 18.6664 11.6555C18.6799 11.6695 18.6933 11.707 18.6641 11.6531C18.6731 11.6695 18.6844 11.6836 18.6933 11.7C18.7068 11.7234 18.718 11.7492 18.7315 11.775C18.7405 11.7937 18.7472 11.8336 18.7293 11.768C18.7427 11.8125 18.7562 11.8547 18.7675 11.9016C18.7719 11.9203 18.7742 11.9367 18.7764 11.9555C18.763 11.8664 18.7742 11.9508 18.7742 11.9719C18.7742 11.9976 18.763 12.1359 18.7764 12.0422C18.7697 12.0867 18.7607 12.1336 18.7472 12.1758C18.7427 12.1945 18.736 12.2109 18.7293 12.2273C18.7517 12.1547 18.736 12.2133 18.7248 12.232C18.7136 12.2531 18.7046 12.2742 18.6911 12.293C18.6844 12.3023 18.6327 12.3773 18.6799 12.3141C18.6507 12.3516 18.617 12.3844 18.5833 12.4195C18.5743 12.4289 18.5339 12.4617 18.5833 12.4219C18.5653 12.4359 18.5541 12.443 18.5339 12.457C18.5316 12.457 18.5316 12.4594 18.5294 12.4594C18.5204 12.4664 18.5092 12.4734 18.5002 12.4781C18.1183 12.7336 17.7365 12.9867 17.3547 13.2422C16.5843 13.7555 15.8138 14.2711 15.0434 14.7844C14.0754 15.4289 13.1095 16.0758 12.1415 16.7203C11.1914 17.3555 10.239 17.9906 9.28894 18.6258C8.54548 19.1226 7.80203 19.6195 7.05857 20.1141C6.72615 20.3367 6.39597 20.5617 6.0613 20.7797C6.02537 20.8031 5.98943 20.8242 5.95124 20.8453C6.0074 20.8148 5.96697 20.8383 5.95349 20.843C5.93103 20.85 5.90857 20.857 5.88611 20.8641C5.86365 20.8711 5.84119 20.8734 5.81873 20.8805C5.87937 20.8617 5.85242 20.8781 5.82771 20.8781C5.78279 20.8805 5.74011 20.8805 5.69519 20.8781C5.6323 20.8758 5.69294 20.8781 5.70642 20.8805C5.68171 20.8758 5.65476 20.8711 5.63005 20.8641C5.60759 20.8594 5.51101 20.8219 5.54695 20.8383C5.58289 20.8547 5.48855 20.8055 5.47058 20.7937C5.45261 20.782 5.43464 20.7656 5.41667 20.7562C5.374 20.7351 5.46833 20.8101 5.41218 20.7516C5.38074 20.7187 5.34929 20.6883 5.32009 20.6531C5.36726 20.707 5.31111 20.6367 5.29539 20.6133C5.28191 20.5898 5.27068 20.5641 5.2572 20.5406C5.24822 20.5219 5.24373 20.4844 5.25945 20.5476C5.24822 20.5008 5.23249 20.4562 5.22126 20.4094C5.21677 20.3906 5.21902 20.3461 5.22126 20.4141C5.228 20.3906 5.22576 20.3601 5.22576 20.3297C5.22351 20.1469 5.07302 19.9687 4.88884 19.9781C4.70916 19.9875 4.54968 20.1328 4.55193 20.3297C4.55867 20.7937 4.80125 21.2414 5.20779 21.45C5.59187 21.6469 6.0366 21.6351 6.40271 21.3984C6.48582 21.3445 6.56892 21.2883 6.64978 21.232C7.19558 20.8687 7.74138 20.5031 8.28718 20.1398C9.16541 19.5539 10.0436 18.968 10.9219 18.382C11.9169 17.7164 12.9141 17.0531 13.9092 16.3875C14.8166 15.7828 15.724 15.1758 16.6314 14.5711C17.2424 14.1633 17.8555 13.7555 18.4665 13.3453C18.5945 13.2609 18.7225 13.1742 18.8506 13.0898C18.9719 13.0078 19.0864 12.9141 19.1762 12.7945C19.4705 12.4078 19.5244 11.8945 19.3245 11.4469C19.201 11.1726 18.9808 10.9992 18.7472 10.8422C18.5676 10.7226 18.3856 10.6008 18.2059 10.4812C17.5209 10.0242 16.8358 9.56718 16.153 9.11015C15.2096 8.47968 14.264 7.84921 13.3207 7.21874C12.3279 6.5578 11.3374 5.89452 10.3446 5.23358C9.5158 4.68046 8.68699 4.12733 7.85818 3.57421C7.40447 3.27186 6.953 2.96952 6.49929 2.66718C6.19158 2.46093 5.85017 2.35546 5.48181 2.44218C4.91355 2.57577 4.55193 3.12186 4.54968 3.71249C4.54968 4.16952 4.54968 4.62421 4.54968 5.08124C4.54968 6.01874 4.54968 6.95624 4.54968 7.89374C4.54968 9.08436 4.54968 10.2726 4.54968 11.4633C4.54968 12.6844 4.54968 13.9078 4.54968 15.1289C4.54968 16.1625 4.54968 17.1961 4.54968 18.232C4.54968 18.8508 4.54968 19.4672 4.54968 20.0859C4.54968 20.168 4.54968 20.25 4.54968 20.3344C4.54968 20.5172 4.70466 20.6953 4.8866 20.6859C5.07078 20.6719 5.22576 20.5266 5.22576 20.3297Z" fill="#264065"/>
</svg>
